<svg xmlns="http://www.w3.org/2000/svg" width="83" height="102" fill="none"><path stroke="#fff" stroke-width="3" d="M81 15.67v51.4c0 7.2-3.2 14.01-9.02 18.28a156.63 156.63 0 0 1-15.54 10.17 57.4 57.4 0 0 1-7.65 3.64c-2.38.9-4.44 1.35-6.05 1.3A19.04 19.04 0 0 1 36.7 99a62.9 62.9 0 0 1-7.58-3.66 168.31 168.31 0 0 1-15.45-9.98 22.56 22.56 0 0 1-9.27-18.48v-51.2c0-3.63 2.08-6.86 5.46-8.06A100.24 100.24 0 0 1 42.71 2c14.32 0 26.1 3.24 32.84 5.61 3.38 1.2 5.45 4.43 5.45 8.06Z"/><path fill="#fff" fill-rule="evenodd" d="M28.48 83.34c.21.02.4.06.41.07.02.02.07.03.11.03.1 0 .12-.05.2-.6a16.33 16.33 0 0 0 .17-1.27c.02-.22.05-.4.06-.4.02-.02.05-.2.07-.4a16.15 16.15 0 0 1 .18-1.32l.09-.69.02-.18c.02-.11.04-.24.06-.28.01-.05.05-.24.07-.44.13-1 .16-1.22.2-1.43l.18-1.4a2.86 2.86 0 0 1 .13-.68c0-.1.02-.2.04-.3l.03-.3.02-.12.06-.52.02-.2-.16-.05a3.28 3.28 0 0 0-.48-.08c-.12 0-.24-.02-.36-.05a2.74 2.74 0 0 0-.62-.1 6.48 6.48 0 0 0-.26-.03c-.13-.02-.14-.01-.32.23a13.25 13.25 0 0 1-.66.84 9 9 0 0 0-.6.75l-.08.1-.3.39c-.35.41-.37.45-.54.66l-.02.03-.4.5c-.14.14-.25.28-.25.3a7.7 7.7 0 0 0-.38.47l-.12.17a58.66 58.66 0 0 0-.96 1.2c0 .03-.26.32-.28.3l-.14-.34a5.55 5.55 0 0 0-.26-.61c0-.04-.06-.18-.25-.59-.04-.1-.08-.2-.1-.3-.02-.08-.05-.13-.06-.13l-.1-.2c-.03-.11-.1-.29-.15-.4a15.75 15.75 0 0 0-.43-1.04 2.8 2.8 0 0 0-.57-1.31.19.19 0 0 1-.04-.1.89.89 0 0 0-.09-.25c-.09-.18-.17-.37-.24-.56l-.13-.3a.56.56 0 0 1-.06-.16l-.1-.26a6.7 6.7 0 0 1-.16-.35v-.01a1.1 1.1 0 0 0-.08-.16 15.35 15.35 0 0 0-1.81-.3.33.33 0 0 0-.13-.01c-.08 0-.1.07-.16.56a31.5 31.5 0 0 1-.16 1.26 40.86 40.86 0 0 0-.3 2.05c-.04.2-.06.42-.09.63-.02.22-.05.4-.06.41-.02.01-.05.2-.07.4l-.08.63c-.06.3-.1.6-.12.9a3 3 0 0 1-.07.48c-.03.08-.05.17-.06.25a68.12 68.12 0 0 1-.4 2.85c0 .13.04.14.57.21a33.97 33.97 0 0 1 1.11.17l.2.02.22.03c.12.02.13.01.16-.12.03-.1.04-.2.04-.3 0-.09.02-.17.04-.18.02 0 .04-.19.06-.39.01-.2.04-.39.05-.4l.07-.43a19.71 19.71 0 0 1 .18-1.27 7.06 7.06 0 0 1 .11-.78l.1-.64.1-.9.1-.56.07-.2.08.24a7.83 7.83 0 0 0 .4.96l.16.34c.02.03.03.06.03.1 0 .03.02.1.06.17l.13.29a17.84 17.84 0 0 0 .4.95c.03.1.07.18.09.18.02 0 .03.03.03.06l.07.22.02.04.21.5c.1.2.2.49.27.63a7.84 7.84 0 0 1 .22.53c.02 0 .05.07.07.15.06.18.07.18.7.25.15.02.3.04.33.06.05.02.1 0 .2-.11.25-.27.44-.5.44-.52 0-.02.11-.17.26-.34l.4-.49.14-.16.12-.15.28-.35.75-.92.2-.24.07-.09.41-.5.43-.53.14-.2c0-.02.02-.04.04-.04.04 0 .03.17-.04.59-.04.25-.15 1.02-.17 1.25v.07l-.06.35a21.02 21.02 0 0 0-.14 1.08l-.07.44-.08.59v.02c-.03.1-.06.34-.09.55l-.02.11-.03.26c-.1.73-.12.9-.06.95h.13l.4.05.45.08.6.08m15.85.25c0-.73-.21-6.14-.27-7.12-.02-.27-.1-2.76-.1-3.02 0-.1.46-.14 3.24-.22.72-.02 1.47-.06 1.68-.08.2-.02.9-.05 1.56-.06a17.35 17.35 0 0 0 1.47-.08c.03.14.05.7.05 1.28v.74h-.5a133.2 133.2 0 0 0-4.18.15l-.8.02.03.94a15.22 15.22 0 0 0 .09 1.62v.27l.65-.01c.35 0 .77-.03.91-.05l1.47-.06a20.6 20.6 0 0 0 1.48-.06c.21-.03.28-.03.32 0 .03.03.05.31.07.83l.05.97c.03.18.03.18-.08.19h-.56l-.1.01c-.3 0-.9.03-1.35.05l-2.64.12h-.13l.01.75c0 .41.03.86.05 1 .02.14.04.67.05 1.2l.02.96-.3-.01c-.17 0-.34 0-.5.02l-.94.04-.74.01v-.4Zm-2.53.47a5.5 5.5 0 0 0-.8-.05c-.67-.02-.8-.03-.86-.09l-.06-.08c0-.1-.03-.2-.07-.29a6.21 6.21 0 0 1-.33-.89l-.03-.08a4.43 4.43 0 0 0-.13-.39.55.55 0 0 0-.07-.17 1.12 1.12 0 0 1-.1-.24l-.02-.12-.61-.02a113.44 113.44 0 0 1-2.95-.14c-.16 0-.34 0-.52-.02l-.85-.02-.04.15c-.02.09-.06.17-.08.18-.02 0-.03.05-.03.1 0 .03-.02.07-.04.07s-.05.04-.06.09l-.43.95-.1.22-.13.27c-.08.18-.13.25-.16.22a32.4 32.4 0 0 0-2.37-.09c-.1 0-.15-.04-.07-.07.03-.02.27-.5.27-.56A96.18 96.18 0 0 0 33 79.33l.1-.22.38-.79.15-.31.2-.4 1.13-2.3c.93-1.86 1.1-2.18 1.16-2.17l1.19.05a7.6 7.6 0 0 1 1.15.08c.03.02.05.06.05.1l.06.18.02.06.09.21.02.04.08.17.03.1.06.18c.14.32.2.5.22.59 0 .03.14.3.2.42l.05.16.1.3a13.93 13.93 0 0 1 .54 1.32 14.66 14.66 0 0 1 .34.85l.11.29c.05.13.1.26.12.28.02.03.03.06.03.1a.9.9 0 0 0 .08.2l.07.2c0 .02.02.1.06.15l.15.37.03.05c.02.02.03.05.03.07l.1.3c.07.13.12.26.12.28l.15.4a37.7 37.7 0 0 1 .6 1.5c.03 0 .04.04.04.08 0 .03.02.1.06.16.02.05.06.14.07.2l.05.14c.02 0 .07.14.12.3.06.15.11.28.13.3.01 0 .02.04.02.09 0 .03.02.07.04.07.03 0 .04.02.04.06 0 .06.08.25.15.4.02.04.03.09.02.1a3.1 3.1 0 0 1-.9.02Zm-3.2-4.37a8.5 8.5 0 0 1-.23-.64c-.05-.12-.1-.24-.13-.36a6.66 6.66 0 0 0-.31-.81.22.22 0 0 1-.03-.1.56.56 0 0 0-.05-.16l-.12-.31-.28-.75a1.12 1.12 0 0 1-.08-.25c-.02-.11-.06-.2-.08-.2-.02 0-.03-.03-.03-.07a.78.78 0 0 0-.07-.21l-.06-.15-.12.2a4.46 4.46 0 0 0-.3.68.89.89 0 0 0-.12.23l-.05.1-.19.42-.15.36c0 .02 0 .03-.02.03s-.06.08-.1.19l-.23.52a30.05 30.05 0 0 0-.55 1.17c0 .02.63.06 1.46.1.4 0 .73.03.75.05.01.01.27.02.57.02.5 0 .54 0 .51-.06m15.75 3.48a15.54 15.54 0 0 0-.12-1.23c-.04-.6-.1-1.2-.17-1.8a83.77 83.77 0 0 1-.24-2.59c-.07-.55-.13-1.11-.17-1.67l-.11-1.2-.06-.48-.02-.16-.05-.55-.02-.17-.03-.23c-.01-.13 0-.25.01-.26l.5-.05c.26 0 .5-.04.51-.05.04-.03.46-.07.9-.1.11 0 .27-.01.38-.03l.17-.03v.28l.04.6.05.41.03.22.09.9a164.6 164.6 0 0 0 .3 3.05l.01.13.2 2.07.06.55a73.48 73.48 0 0 0 .22 2.25c.02.1.02.14-.02.15a48.25 48.25 0 0 1-2.04.23l-.19.01-.2.03-.03-.28Zm4.18-.62c-.03.17-.08.34-.14.5-.02.04-.02.06-.01.07 0 .02.05.01.17 0 .26-.03.42-.05.65-.1a4.61 4.61 0 0 1 .93-.15c0-.01.12-.04.27-.05l.35-.05c.08-.02.17-.2.17-.33 0-.04.01-.1.03-.13.04-.09.06-.18.08-.27a10.04 10.04 0 0 1 .28-1.26c.05-.27.07-.37.13-.42.04-.04.11-.05.24-.07l.46-.08c.4-.08.82-.14 1.22-.2.2-.03.4-.06.44-.08.22-.05.53-.1.9-.15l.62-.1.57-.09.36-.04.45.73a19.6 19.6 0 0 1 .75 1.23c.04.1.09.1.34.06a3.29 3.29 0 0 1 .49-.07s.59-.1.88-.13a3.13 3.13 0 0 1 .88-.14c.02 0 .03-.02.02-.04a11.06 11.06 0 0 0-.65-1c-.01-.05-.04-.1-.06-.1-.02 0-.04-.01-.04-.03a.89.89 0 0 0-.21-.31l-.01-.03c0-.05-.2-.34-.24-.34-.01 0-.03-.03-.03-.06 0-.02-.02-.07-.05-.1-.03-.02-.05-.05-.04-.06 0-.01-.04-.1-.1-.18-.06-.06-.11-.14-.16-.21-.03-.08-.1-.2-.18-.28a1.1 1.1 0 0 1-.12-.2.44.44 0 0 0-.1-.14.89.89 0 0 1-.12-.19c-.06-.1-.12-.18-.14-.18-.02 0-.04-.04-.06-.1 0-.05-.04-.09-.06-.09a.04.04 0 0 1-.02-.01.04.04 0 0 1-.01-.03.87.87 0 0 0-.2-.3c-.02 0-.03-.02-.03-.04a29.41 29.41 0 0 1-.51-.81l-.13-.2-.11-.16-.53-.8-.52-.8-.02-.02a17.51 17.51 0 0 1-.59-.89l-.2-.3-.2-.32a20.93 20.93 0 0 0-.7-1.02c0-.02-.05-.13-.13-.24-.1-.16-.15-.2-.2-.19-.03.02-.2.05-.4.08l-.54.1-.32.05c-.4.07-.61.1-.7.1a.76.76 0 0 0-.24.05c-.1.04-.13.08-.18.27-.06.2-.16.64-.2.9l-.06.13c-.02 0-.03.05-.03.1s-.01.1-.03.12a.85.85 0 0 0-.08.24c-.05.27-.12.54-.2.8l-.05.23c-.03.19-.07.37-.13.55-.06.17-.11.34-.14.51 0 .08-.02.15-.05.21l-.06.24c-.01.11-.04.2-.06.22-.02.01-.03.06-.03.11s-.02.1-.04.12c-.03.01-.03.05-.02.08a.11.11 0 0 1-.01.1.78.78 0 0 0-.06.18c-.05.26-.1.45-.14.55l-.05.19-.04.17-.02.06a27.19 27.19 0 0 0-.2.76.9.9 0 0 0-.05.24c0 .1-.04.2-.06.2-.02 0-.03 0-.02.01.02.02-.04.29-.13.59l-.09.36-.07.27-.01.06-.02.1-.06.22c-.06.13-.15.52-.18.73 0 .1-.04.2-.05.2-.02 0-.04.05-.04.1 0 .07-.01.13-.03.14-.02.02-.05.11-.06.22-.01.09-.03.16-.06.24a.67.67 0 0 0-.05.19m4.82-4.45a13.95 13.95 0 0 0-1.34.23c-.14.02-.16.02-.13-.04l.03-.15.14-.53.1-.42.06-.3.04-.23c.01-.08.03-.15.06-.23.05-.13.08-.27.09-.42 0-.03 0-.05.02-.05s.04-.1.06-.23c0-.1.02-.19.05-.28.03-.05.05-.1.05-.15a8.02 8.02 0 0 1 .17-.74c.03-.24.07-.4.11-.41.03 0 .1.08.16.19l.34.54.02.03.13.24a15.6 15.6 0 0 1 .49.77 9.79 9.79 0 0 0 .42.66 21.08 21.08 0 0 1 .35.58l.15.24.26.4-.15.01a.87.87 0 0 0-.2.04 9.81 9.81 0 0 0-.92.16l-.56.1Z" clip-rule="evenodd"/><path fill="#fff" d="M7.73 67.48c0-.02 0-.1.04-.17.03-.1.1-.15.22-.21a7.54 7.54 0 0 0 1.18-.77l.32-.22a6.5 6.5 0 0 0 .61-.42c.03 0 .06-.03.1-.05.04-.04.5-.37.65-.46.03-.02.19-.12.33-.23l.3-.2c.03 0 .32-.21.36-.26.02 0 .08-.05.16-.1l.25-.17c.17-.15.2-.17.23-.17s.08-.04.13-.08c.08-.08.17-.14.26-.2l.19-.13c0-.02.16-.12.34-.24.18-.12.34-.24.36-.27l.23-.16a.77.77 0 0 0 .22-.18h.03l.15-.09.2-.16.2-.15.25-.16.2-.13c.08-.08.28-.2.32-.2.02 0 .05-.03.07-.06a1.15 1.15 0 0 1 .4-.28c0-.02.44-.33.68-.49l.47-.3a7.37 7.37 0 0 1 .68-.4c.06 0 1.14-.67 1.28-.78l.14-.14-.06-.16a1.31 1.31 0 0 1-.06-.4c0-.31-.03-.5-.1-.5a.05.05 0 0 1-.05-.05c0-.03-.03-.09-.07-.12-.04-.04-.08-.08-.08-.1a1.42 1.42 0 0 0-.13-.23c-.08-.11-.13-.22-.12-.24.02-.02 0-.04-.02-.05-.02-.02-.03-.2-.03-.44 0-.4.04-.65.18-1.03l.06-.2c0-.04.02-.06.03-.08l.05-.18c.02-.08.04-.14.06-.14.02 0 .03-.03.03-.05 0-.03.02-.1.04-.13l.15-.3c.28-.55.66-1.16.86-1.34.24-.22.57-.34.96-.34.1 0 .22 0 .33.03.02.02.07.09.1.16.06.14.08.21.16.72l.05.2.07.33.1.44c.04.21.18.93.2 1.15a.5.5 0 0 0 .07.2 3.9 3.9 0 0 1 0 1.2c-.03 0-.05.04-.05.1 0 .04-.02.1-.04.1-.02.01-.04.05-.04.08 0 .08.11.04.42-.14.13-.07.3-.15.37-.16.07-.01.12-.04.12-.05 0-.02.1-.06.2-.1.11-.04.29-.1.4-.16a5.35 5.35 0 0 1 1.23-.4c.11-.01.24-.04.3-.06a37.9 37.9 0 0 1 5.74-.03c2.04.08 2.1.1 2.42.24.27.13.39.16.42.1.02-.02.07-.05.13-.06l.25-.1a12.13 12.13 0 0 1 1.15-.38l.12-.04a.1.1 0 0 0 .06-.06c.05-.18.1-.35.18-.51.1-.2.38-.47.55-.53.07-.03.13-.07.13-.08a3.4 3.4 0 0 0 .66-.33 13.16 13.16 0 0 0 1.46-1.46c.19-.17.27-.3.27-.4 0-.14.47-.56.95-.85.3-.2.46-.33.75-.64l.73-.76a10.59 10.59 0 0 0 .87-.98c.07 0 .04-.11-.05-.13a1.1 1.1 0 0 1-.2-.12.55.55 0 0 0-.17-.09c-.02 0-.05-.02-.06-.05-.02-.03-.04-.06-.06-.06-.04 0-.32-.17-.57-.34a.37.37 0 0 0-.14-.07c-.02 0-.04-.03-.06-.06 0-.02-.03-.05-.06-.05l-.27-.15c-.08-.06-.17-.1-.26-.15-.02 0-.04-.01-.04-.04 0-.01-.04-.04-.09-.06-.05 0-.1-.04-.11-.07a.09.09 0 0 0-.08-.05c-.03 0-.06-.02-.06-.04s-.02-.04-.04-.04a.87.87 0 0 1-.21-.1.88.88 0 0 0-.23-.13.03.03 0 0 1-.01-.02c0-.02-.03-.05-.08-.06a.65.65 0 0 1-.17-.12c-.08-.07-.15-.09-.29-.09-.1 0-.19.02-.2.04-.02.02-.07.04-.13.03l-.4.03c-.28.03-.29.02-.4-.08-.06-.06-.11-.13-.11-.15 0-.13-.13-.2-.35-.2-.2 0-.22 0-.35-.15a1.1 1.1 0 0 1-.18-.32c-.04-.14-.06-.17-.18-.2A1.1 1.1 0 0 0 36 47c-.13 0-.29-.18-.41-.47a16.16 16.16 0 0 0-.51-1.05c-.05 0-.24.1-.57.28l-.35.18c-.1.04-.17.08-.17.1 0 .02-.02.03-.05.03-.03 0-.2.07-.35.15-.16.08-.33.16-.5.22a1.1 1.1 0 0 0-.23.1 1.1 1.1 0 0 1-.23.12 5.46 5.46 0 0 0-.64.27 6.44 6.44 0 0 0-.8.35c0-.01-.07 0-.14.05l-.28.13a22.18 22.18 0 0 0-.9.38c-.07 0-.12.04-.12.05 0 .02-.08.06-.18.1a18 18 0 0 0-1.32.57l-.34.15-.48.21a1.1 1.1 0 0 0-.19.1 13.3 13.3 0 0 0-.73.32l-.63.29-.1.03-.1.05c0 .04-.04.05-.28.06-.19 0-.19 0-.27-.16-.18-.36-.1-.54.39-.9l.33-.25.24-.17.19-.15.14-.1c.03 0 .46-.31.55-.4a.18.18 0 0 1 .1-.04c.03 0 .06-.03.08-.06 0-.03.04-.06.07-.06.02 0 .09-.04.14-.09.05-.05.1-.1.14-.1.02 0 .05 0 .05-.02s.03-.05.07-.06c.2-.12.38-.24.56-.38.03-.01.07-.06.1-.08a.22.22 0 0 1 .1-.05.2.2 0 0 0 .09-.03c.2-.16.28-.23.36-.27a5.04 5.04 0 0 0 .64-.4c.02 0 .3-.2.42-.3a.22.22 0 0 1 .1-.04c.03 0 .06 0 .07-.02.09-.1.2-.18.31-.24.02 0 .26-.15.29-.19l.2-.12.25-.15c.06-.04.4-.25.9-.52a6.61 6.61 0 0 1 2.27-.8l.68-.17.3-.07.2-.04c.3-.05.32-.09.33-.66.01-.37.02-.53.07-.61.07-.12.15-.2.23-.22.07-.02.14-.04.2-.08.08-.03.27-.07.42-.08.26-.03.26-.03.35-.18a.77.77 0 0 0 .08-.2l.14-.33.15-.32c0-.04.1-.27.2-.44l.04-.14c0-.03.04-.12.08-.2l.22-.47.27-.57c.21-.45.49-.66.9-.66.22 0 .25.03.33.26.07.18.08.77.03.8-.02.01-.04.1-.05.18-.04.2-.05.26-.07.3a2.18 2.18 0 0 1-.28.65.33.33 0 0 0-.05.1.77.77 0 0 1-.06.17.55.55 0 0 0-.06.17c0 .03-.02.05-.03.05a.81.81 0 0 0-.12.26c-.05.15-.1.26-.13.26a6.16 6.16 0 0 1-.49 1.12l-.12.3c-.02.06-.03.12-.01.14a71.16 71.16 0 0 1 5.86-.04c1.4.01 2.07 0 2.09-.02a12 12 0 0 1 1.85-.03c.1.03.08.1-.03.1-.04 0-.08.01-.08.03 0 .01-.07.06-.17.1-.08.02-.15.05-.22.09a.76.76 0 0 1-.2.06c-.1.01-.16.03-.16.05 0 .03-.17.07-.36.1a42.68 42.68 0 0 1-5.41.27c-.7-.02-1.29-.02-1.3-.01l.12.29a5.85 5.85 0 0 1 .3.67.7.7 0 0 1 .02.6c-.07.13-.16.25-.26.36-.2.21-.21.23-.15.28l.13.05c.03 0 .1.03.14.06.07.06.12.13.25.39.04.09.04.24 0 .27-.04.02.1.17.16.17.01 0 .09.04.16.1.07.05.13.08.13.07a6.5 6.5 0 0 0 .6.33 12.61 12.61 0 0 1 1.14.6c.2.1.33.17.6.34.11.06.22.12.25.12.06 0 .17-.1.35-.32l.23-.26c.11-.1.2-.23.22-.38.03-.2.2-.49.38-.64.17-.14.3-.23.55-.35a3.29 3.29 0 0 0 .56-.32c.02 0 .06-.03.09-.08a28.97 28.97 0 0 0 1.76-1.57c.22-.18.26-.26.2-.36l-.07-.15a.33.33 0 0 1-.04-.13c0-.07.14-.34.19-.36.04 0 .15-.1.48-.35.11-.09.22-.16.24-.16a1.66 1.66 0 0 1 .48-.3c.15-.07.29-.14.3-.17.02-.05-.06-.55-.1-.57a1 1 0 0 1-.06-.28 6.53 6.53 0 0 0-.12-.65c-.04-.16-.06-.31-.08-.47a41.5 41.5 0 0 0-.19-1.37c-.04-.3-.07-.35-.27-.38-.1-.02-.14-.04-.14-.09 0-.06-.1-.39-.16-.49a.88.88 0 0 1-.05-.24.87.87 0 0 0-.06-.22.54.54 0 0 1-.06-.13.87.87 0 0 0-.11-.22c-.08-.11-.09-.13-.04-.19.07-.07.07-.24 0-.5-.03-.14-.06-.3-.07-.45 0-.1-.03-.2-.06-.3a1.66 1.66 0 0 1-.1-.5c-.02-.16-.01-.18.08-.24a2.07 2.07 0 0 1 .78-.22l.24-.06c.05-.02.19-.04.33-.05l.79-.1c.43-.05.5 0 .57.37a15.68 15.68 0 0 0 .13.7c.03.3.1.6.15.77.06.17.05.29-.02.29-.05 0-.02.4.05.76.08.46.08.61 0 .7a.66.66 0 0 1-.16.12l-.1.04.05.36c.02.2.05.37.07.38l.02.18c0 .14.04.4.12.77a36.65 36.65 0 0 1 .27 1.37c.03.08.07.3.08.4 0 .08 0 .09.13.08.13-.01.14-.02.24-.3l.19-.47c.03-.12.12-.35.18-.52.06-.17.1-.33.1-.36-.02-.02 0-.06.02-.07.02-.01.04-.07.04-.13s.02-.12.04-.13c.02-.02.02-.06.01-.1 0-.03 0-.08.02-.09.02-.01.04-.07.04-.13s.02-.12.04-.13c.02-.01.04-.12.06-.24.01-.13.04-.23.05-.23.02 0 .04-.1.06-.24.01-.13.04-.24.06-.24.02 0 .03-.05.03-.1 0-.07.02-.13.04-.14.02-.01.05-.12.06-.24.02-.13.04-.23.06-.23.03 0 .03-.02.02-.04-.01-.05.04-.27.1-.44.04-.11.1-.36.14-.6.04-.24.1-.45.15-.55.02-.04.04-.15.06-.26 0-.09.03-.17.05-.24.02-.04.09-.3.15-.6 0-.05.03-.1.05-.16a.1.1 0 0 0 .02-.1c-.01-.03 0-.06.01-.08.03 0 .04-.08.04-.15 0-.07.01-.12.03-.12.02 0 .03-.04.04-.09 0-.11.05-.29.08-.38l.06-.18.04-.14.03-.16.05-.2a.22.22 0 0 0 .02-.11.12.12 0 0 1 .03-.1c.04-.05.07-.84.02-.9a.1.1 0 0 0-.08-.05.6.6 0 0 1-.19-.13c-.14-.13-.14-.14-.14-.37 0-.15.02-.27.05-.3l.05-.09a.7.7 0 0 1 .07-.32c.02-.01.03-.06.03-.1 0-.1.12-.34.2-.45.06-.07.39-.14.64-.14.33 0 .74.1.86.21.03.03.06.05.08.05l.16.13c.22.19.32.48.23.65-.02.03-.08.22-.12.41-.13.53-.31.75-.63.75-.16 0-.24.03-.24.1a.44.44 0 0 1-.1.18.54.54 0 0 0-.1.16c0 .02-.01.05-.05.07a.17.17 0 0 0-.05.11c0 .14-.05.35-.09.37-.01 0-.03.06-.03.12s-.01.12-.03.13c-.02.02-.05.18-.09.35a5.47 5.47 0 0 1-.2.83c0 .08-.03.16-.07.24l-.05.25c-.01.12-.04.22-.06.23-.02.02-.03.06-.03.12 0 .05-.01.1-.04.15-.03.06-.1.32-.13.53a3.5 3.5 0 0 1-.05.24l-.09.27a7.82 7.82 0 0 0-.2.82 6.59 6.59 0 0 0-.18.66 2.2 2.2 0 0 0-.05.24c0 .07-.03.14-.05.2-.03.04-.1.31-.22.84a5.3 5.3 0 0 0-.25 1.13c-.01.15-.05.36-.07.48l-.04.37c0 .09-.01.19-.03.22-.03.04.03.29.1.43l.1.22.16.34c.21.44.25.64.17.85a.27.27 0 0 0 0 .18l.1.3c.08.3.07.28.2.24.16-.05.34-.3.34-.46 0-.21.1-.42.23-.45.11-.02.27-.09.5-.22.33-.2.4-.24.42-.21.01 0 .05 0 .07-.02a.33.33 0 0 1 .1-.03l.26-.05c.45-.1.45-.1.59.04.22.22.32.66.2.88-.02.05-.26.3-.52.53-.54.49-.85.8-1.19 1.18-.2.24-.24.3-.24.42 0 .1.02.16.11.23s.12.13.12.21c0 .14-.31.77-.45.92-.05.05-.07.09-.03.08.03-.02.12-.04.2-.05l.18-.05a35.01 35.01 0 0 1 3.61-1.25.55.55 0 0 1 .2-.06c.05 0 .08-.01.08-.03a10.66 10.66 0 0 0 1.04-.4 6.45 6.45 0 0 1 .82-.31c0-.02.03-.04.07-.04.04 0 .15-.02.24-.05a4.62 4.62 0 0 1 .96-.25c.02-.02.11 0 .22.03.14.06.2.06.25.02a18.9 18.9 0 0 1 2.6-.8c.1.01.27-.04.66-.19l.5-.16c.04-.01.02-.05-.07-.13-.1-.1-.14-.19-.27-.5a1.08 1.08 0 0 1-.06-.2l-.05-.15a2.6 2.6 0 0 1-.14-.33c-.04-.14-.1-.27-.16-.4a.97.97 0 0 1-.05-.6c.06-.23.34-.56.61-.75l.13-.08-1.16.01a13.67 13.67 0 0 0-3.22.34 10.94 10.94 0 0 1-1.4.32.78.78 0 0 1-.25.05c-.09.01-.18.03-.26.06a21.1 21.1 0 0 1-.67.15l-.56.11a7.65 7.65 0 0 1-1.1.2 21.19 21.19 0 0 1-1.49.27l-.34.05a12.8 12.8 0 0 1-.62.12c-.02.01-.19.03-.37.03-.31 0-.33 0-.4-.1a.44.44 0 0 1-.09-.14c0-.07.28-.2.51-.24l.97-.19.27-.05.85-.17a6.3 6.3 0 0 1 .72-.15l.25-.05.42-.1a8.69 8.69 0 0 1 .64-.14c.02-.03.09-.04.31-.07.1 0 .18-.04.18-.05 0-.02.04-.03.1-.03a5.31 5.31 0 0 1 .6-.13c.4-.08.49-.1.57-.13l.21-.06.23-.03a3.63 3.63 0 0 0 .81-.19c.4-.06.94-.17 1.09-.2a10.95 10.95 0 0 1 1.72-.3l.67-.1.7-.1.27-.04.07-.2c.05-.15.07-.34.08-.6 0-.4.04-.52.18-.65a.24.24 0 0 1 .14-.06c.04 0 .08-.02.1-.04 0-.02.03-.03.05-.02.02.01.04 0 .06-.02 0-.02.05-.04.1-.04.03 0 .07-.01.07-.03 0-.03.06-.05.33-.1.04 0 .08 0 .12.02.36.17.41.2.46.33l.06.12c.02 0 .15-.14.18-.19a4.09 4.09 0 0 1 .51-.7 1.9 1.9 0 0 1 .54-.6c0-.02.06-.07.14-.11l.19-.13.1-.08a.22.22 0 0 1 .12-.05c.03 0 .05-.01.05-.03 0-.02.04-.04.07-.06.05-.03.2-.1.34-.19a23.29 23.29 0 0 1 2.32-1.15c.07-.05.14-.08.21-.11l.51-.23a7.68 7.68 0 0 1 1.19-.53c.04-.04.09-.07.14-.09l.5-.23.6-.28c.14-.05.36-.16.5-.22l.28-.12.19-.07a.88.88 0 0 1 .21-.08c.04 0 .08-.01.09-.03.02-.03.25-.08.44-.1.13 0 .4.07.67.19.26.12.25.11.22.17a.33.33 0 0 0-.05.1c0 .04-.02.07-.04.08l-.16.1-.27.23a54.33 54.33 0 0 1-1.8 1.4c-.24.21-.42.36-.45.36a13.2 13.2 0 0 1-1.27 1 1.1 1.1 0 0 1-.19.15l-.2.16-.88.68-.49.37-.23.17-.23.17a2.1 2.1 0 0 1-.34.24.76.76 0 0 0-.17.1.66.66 0 0 1-.18.12l-.08.05a3.9 3.9 0 0 1-.87.41c-.13.07-.6.25-.66.25-.03 0 .03.03.14.05.1.04.25.1.33.15l.18.1c.02 0 .12.06.21.15a1 1 0 0 1 .34.61c.08.32.11.4.2.57.07.1.15.27.18.36.11.32.15.35.4.35.11 0 .23-.02.25-.03a1 1 0 0 1 .3-.06c.13 0 .27-.02.4-.04.19-.03.34.07.47.32.18.36.12.6-.22.9-.32.3-.32.3-.6.44l-.28.13v.27l.05.38c.03.07.03.14 0 .23-.1.32-.15.37-.78.85-.35.27-.44.33-.54.33-.09 0-.2-.1-.6-.49l-.5-.49-.2.02c-.2.03-.44.12-.44.18 0 .02-.03.05-.07.06a.55.55 0 0 0-.15.11c-.05.05-.11.09-.14.09-.03 0-.06 0-.07.03a.55.55 0 0 1-.16.1c-.12.05-.26.07-.68.08-.23 0-.46.02-.69.06a7.46 7.46 0 0 0-1.17.4.55.55 0 0 1-.15.05l-.27.1a21.22 21.22 0 0 1-1.5.56c0 .02-.03.03-.06.03a.55.55 0 0 0-.18.06 6.55 6.55 0 0 0-.97.35l-.22.08a3.03 3.03 0 0 1-.45.17l-.1.03a.1.1 0 0 0-.05.03c-.02.02-.06.03-.1.03-.03 0-.07 0-.08.03a21.28 21.28 0 0 0-1.74.65l-.13.05-.11.03-.17.07c-.37.15-.74.28-1.12.4a1.8 1.8 0 0 0-.35.15c0 .02-.05.03-.08.03-.04 0-.08.01-.1.03a.11.11 0 0 1-.05.03l-.1.03-.12.05a6.1 6.1 0 0 0-.37.14 5.49 5.49 0 0 1-.57.2l-.23.1c-.08.02-.15.05-.22.1a.19.19 0 0 1-.1.03c-.04 0-.17.04-.3.1l-.39.15a5.04 5.04 0 0 0-.7.27l-.32.1-.46.18-.16.06a2.19 2.19 0 0 1-.3.11 10.57 10.57 0 0 1-1.24.44l-.18.08c-.16.06-.16.08 0 .15l.16.08a7.93 7.93 0 0 1 1.34 1.29c.21.23.3.37.49.75.25.5.24.5.26 1.84l.02 1.23.14.28.14.27h.43a13.5 13.5 0 0 0 2.26-.24c0-.01.18-.04.37-.05l.52-.06c.1-.02.47-.06.84-.08l1.12-.08 1.32-.07c.48-.02.96-.05 1.07-.07.1-.02.48-.05.83-.07l1.04-.08a87.26 87.26 0 0 1 2.62-.22l1.12-.1a9.9 9.9 0 0 0 1.49-.16c.18-.08.3-.03.18.07a.22.22 0 0 0-.07.12c0 .09-.06.12-.73.45a1.9 1.9 0 0 1-.72.25 6.93 6.93 0 0 0-.72.11l-.47.08a5.09 5.09 0 0 1-.55.07l-.42.06-.67.09c-.36.06-.79.11-.98.13a93.46 93.46 0 0 1-7.24.55c0 .02-.08.03-.18.03-.1 0-.17 0-.17.02l.08.19c.17.35.22.49.34.85a3.96 3.96 0 0 0 .25.62c.08.25.09.56.01.74-.07.18-.3.52-.4.6-.1.08-.11.14-.03.14.1 0 .28.11.28.17 0 .02.02.05.04.05s.04.07.06.16c.01.09.05.2.08.26.06.12.07.33 0 .39-.02.03-.02.05 0 .06.03.02.05.08.05.14 0 .06.02.1.04.1s.04.04.04.08.01.08.03.1c.02 0 .05.1.07.18 0 .1.03.18.05.2.05.02.04.53 0 .53-.02 0-.04.02-.04.06 0 .08-.17.35-.3.46-.1.1-.17.12-.65.22a5.9 5.9 0 0 1-1.88-.13c-.2-.04-.41-.06-.62-.06-.46 0-.6-.05-.68-.23l-.18-.44c-.04-.08-.07-.1-.13-.09a2.2 2.2 0 0 1-.74-.14.5.5 0 0 1-.26-.36c-.04-.15-.07-.19-.22-.19-.06 0-.1-.01-.1-.03 0-.02-.04-.04-.08-.04-.14 0-.44-.34-.55-.64a1.1 1.1 0 0 0-.14-.28c-.02-.01-.03-.05-.03-.09a.55.55 0 0 0-.05-.17.43.43 0 0 1-.03-.13c.01-.07-.1-.01-.37.2a5.49 5.49 0 0 1-.57.4c-.08.07-.17.13-.27.18a.44.44 0 0 0-.08.04c-.02.03-.1.08-.35.21-.1.06-.18.11-.18.13 0 .02-.03.04-.06.05-.08.02-.16.07-.34.2a.44.44 0 0 1-.16.09c-.02 0-.04 0-.04.02s-.07.06-.16.1c-.08.04-.15.09-.15.1a11.51 11.51 0 0 0-1.07.66l-.23.14a.99.99 0 0 1-.28.13c-.03 0-.05 0-.04.02.02.01 0 .05-.04.07a10.88 10.88 0 0 0-.9.54 7.07 7.07 0 0 0-.79.48l-.3.17c-.1.07-.21.13-.33.17-.02 0-.04.01-.04.03l-.21.15a9.82 9.82 0 0 0-.75.43l-.25.15-.15.1a7.03 7.03 0 0 1-.8.5 19.64 19.64 0 0 1-.97.58.77.77 0 0 1-.17.1c-.1.04-.18.1-.26.15a.55.55 0 0 1-.3.12c-.08 0-.16-.06-.33-.23-.28-.3-.36-.41-.36-.55 0-.12.06-.3.11-.34l.12-.15.16-.2.15-.19a81.6 81.6 0 0 1 4.62-4.33 19.52 19.52 0 0 1 2.23-1.8c.1-.1.52-.39.69-.47.14-.07.17-.15.07-.15a.44.44 0 0 1-.16-.09 3.3 3.3 0 0 0-.26-.15c-.08-.04-.14-.09-.14-.1 0-.02-.03-.03-.06-.03a.09.09 0 0 1-.08-.06c-.02-.03-.05-.06-.08-.06a.44.44 0 0 1-.19-.09.54.54 0 0 0-.16-.1c-.02 0-.05-.02-.06-.05-.02-.03-.05-.05-.08-.05a.77.77 0 0 1-.23-.13 7.67 7.67 0 0 0-.7-.43c-.02-.02-.1-.02-.22.01-.1.03-.8.71-1.48 1.46l-.51.53c-.19.17-.22.2-.16.25l.13.09c.1.06.14.18.17.4l.03.16-.34.33c-.18.18-.41.38-.51.45a8.1 8.1 0 0 0-.48.37c-.05.04-.11.08-.14.08a.1.1 0 0 0-.08.05c-.04.07-.85.44-1.21.56-.36.11-.48.1-.6-.1-.05-.1-.08-.1-.17-.08a1.1 1.1 0 0 1-.17.03l-.25.06a1.7 1.7 0 0 1-.59.01c-.66-.04-.7-.04-.89.1-.22.15-.52.17-.73.04a.84.84 0 0 1-.37-.45c-.08-.24.02-1 .14-1.18.05-.07.05-.15.04-.34a5.57 5.57 0 0 1-.02-.34.76.76 0 0 0-.05-.2l-.04-.1-.6.03c-.59.02-.6.02-.67-.06a.33.33 0 0 1-.09-.23.76.76 0 0 0-.03-.23l-.04-.1-.2.07-.34.13c-.15.07-.6.2-.66.2-.03 0-.05.03-.05.05 0 .02-.03.03-.07.03-.04 0-.09.01-.1.03a.16.16 0 0 1-.05.03.55.55 0 0 0-.1.03c-.24.09-.2.08-.35.12a.66.66 0 0 0-.15.05c-.02.02-.2.09-.42.15a7.31 7.31 0 0 0-.85.3 30.24 30.24 0 0 0-.72.25l-.17.06-.37.15a.77.77 0 0 1-.2.06c-.03 0-.15.04-.26.09-.11.05-.28.11-.37.13a5.47 5.47 0 0 0-.7.26l-.47.16-.45.16a.65.65 0 0 1-.2.06c-.04 0-.07.01-.07.03 0 .02-.03.04-.06.04a.33.33 0 0 0-.12.03c-.2.09-.4.15-.6.2-.03 0-.06 0-.06.02s-.06.05-.14.07a2.82 2.82 0 0 0-.4.15 17.89 17.89 0 0 0-1.27.45 4.06 4.06 0 0 0-1.4.8c-.28.25-.49.34-.88.36-.42.01-.7.1-1 .3-.65.43-.78.47-1.33.5-.24 0-.47.03-.49.05-.05.04-.1.05-.58.12a2.63 2.63 0 0 1-1.21.08.33.33 0 0 0-.13-.05c-.12-.03-.27-.22-.27-.35a.17.17 0 0 0-.06-.13c-.03-.02-.05-.1-.05-.2 0-.13.02-.18.16-.3.2-.19.45-.37.78-.56.25-.14.29-.23.17-.37a.27.27 0 0 1-.05-.14.22.22 0 0 0-.05-.1 2.96 2.96 0 0 1-.48-.92c-.14-.34-.16-.6-.04-.72.1-.1.03-.1-.25.02a9.35 9.35 0 0 0-2.03 1.2 11.43 11.43 0 0 1-.52.38l-.41.3-.12.07a.77.77 0 0 0-.13.09c-.06.05-.13.1-.2.13a2.2 2.2 0 0 0-.18.13l-.22.16-.19.13a4.43 4.43 0 0 0-.43.3 1.1 1.1 0 0 1-.2.12.44.44 0 0 0-.13.1l-.28.2-.42.28c-.07.06-.15.1-.23.15-.05.02-.1.05-.1.07 0 .02-.01.04-.04.04A5.47 5.47 0 0 1 8.3 67.4a2.2 2.2 0 0 0-.22.08c-.09.04-.32.04-.35 0ZM24.81 61c0-.02.1-.06.23-.1.23-.07.35-.18.27-.25-.05-.05-.05-.18 0-.3.03-.05.1-.1.26-.15l.3-.11a3.86 3.86 0 0 0 .69-.25c.03 0 .08 0 .1-.02 0-.02.04-.03.06-.03l.72-.25c.14-.06.33-.1.41-.12.06-.01.12-.03.18-.07.01-.02-.02-.03-.1 0l-.49.07-.16.05c0 .02-.13.04-.3.06-.17.01-.32.04-.33.06-.01.02-.07.03-.12.03a.76.76 0 0 0-.22.04c-.13.03-.26.06-.4.07l-.37.06-.27.04c-.08 0-.17.03-.25.05-.09.04-.33.08-.5.08-.06 0-.13.01-.14.03-.01.02-.06.04-.1.04-.04 0-.07.02-.07.03 0 .04.01.07.2.44.1.2.13.44.06.48a.09.09 0 0 0-.03.06c0 .05.35.01.37-.04Zm25.97-3.27.23-.1c.22-.06.24-.1.24-.31 0-.1-.02-.17-.11-.25-.06-.06-.12-.13-.12-.15 0-.03-.01-.05-.03-.05-.05 0-.22-.34-.27-.52l-.1-.4-.1-.36a10.93 10.93 0 0 1-.2-1.12 1.42 1.42 0 0 0-.05-.26 2.62 2.62 0 0 1-.09-.58c0-.05 0-.1-.03-.13a1.53 1.53 0 0 1-.05-.34 1.05 1.05 0 0 0-.06-.33c-.02-.01-.04-.1-.04-.22 0-.11-.02-.21-.04-.22-.05-.04-.3.13-.51.33-.16.15-.25.21-.45.31-.16.1-.3.22-.4.36l-.5.6c-.2.2-.38.42-.56.64-.03.02-.04.1-.04.16 0 .14-.15.43-.33.62-.09.09-.06.15.13.25l.2.13a20.46 20.46 0 0 1 1.08.7 5.57 5.57 0 0 0 .65.4c.07.06.14.1.22.14l.2.13c.03.03.13.1.22.14l.19.11c.02.03.14.1.26.17.11.06.21.13.21.15 0 .04.2.04.25 0m-3.56-11.36c.1-.06.25-.1.27-.1l.12-.06c.07-.03.13-.05.15-.03.1.05.39-.19.63-.51l.3-.38a10 10 0 0 0 .3-.38c.08-.1.08-.1 0-.08a.77.77 0 0 1-.16.05c-.04.01-.1.03-.1.05-.01.02-.06.04-.1.04-.06 0-.27.18-1.16.99-.36.32-.47.46-.38.46l.13-.05Zm3.14-4.38-.06-.26a6.57 6.57 0 0 0-.13-.67l-.03-.15a3.27 3.27 0 0 1-.06-.33 6.58 6.58 0 0 0-.08-.47 5.45 5.45 0 0 1-.09-.54c-.02-.2-.05-.37-.07-.37-.01 0-.03-.06-.03-.14 0-.08-.01-.2-.03-.28-.02-.12-.03-.14-.1-.13-.04 0-.08.04-.07.07l.03.23.06.44.08.62c.02.2.06.38.08.38.01 0 .03.07.03.16a3 3 0 0 0 .11.69c.03.1.06.32.09.5.04.3.05.35.14.39.11.05.16 0 .13-.14Z"/><path fill="#fff" fill-rule="evenodd" d="M60.59 30.15a3.3 3.3 0 0 1-.45-.07 1.1 1.1 0 0 0-.28-.03 48.06 48.06 0 0 0-3.64-.42c-.25-.03-.5-.07-.52-.1-.03-.02-.07-.11-.09-.2l-.02-.1c0-.06-.02-.11-.04-.16l-.03-.1c-.04-.16-.09-.31-.15-.46l-.08-.3-.02-.09-.03-.15c-.02-.1-.06-.19-.1-.28a3.23 3.23 0 0 1-.14-.52l-.1-.32a3.23 3.23 0 0 1-.11-.42.64.64 0 0 0-.06-.19.54.54 0 0 1-.05-.16 2.12 2.12 0 0 0-.05-.21 2.69 2.69 0 0 1-.16-.54c0-.04-.01-.07-.03-.07-.01 0-.03-.04-.04-.1a2.15 2.15 0 0 0-.1-.36 4.3 4.3 0 0 1-.13-.47 2.47 2.47 0 0 0-.15-.5 2.15 2.15 0 0 1-.07-.24l-.04-.15-.01-.08-.04-.13-.1-.3-.13-.47-.04-.13-.03-.13a6.5 6.5 0 0 0-.28-.97 2.68 2.68 0 0 1-.15-.54c0-.04-.02-.08-.04-.1-.02 0-.04-.04-.04-.08l-.07-.3a4.29 4.29 0 0 1-.18-.58l-.03-.13-.03-.16c-.02-.07-.05-.14-.07-.16-.02 0-.03-.05-.03-.1s-.02-.1-.04-.11c-.02-.02-.02-.05 0-.08 0-.03 0-.07-.02-.09-.03-.02-.08-.2-.15-.53-.01-.06-.04-.1-.05-.1-.02 0-.05-.1-.06-.2-.01-.12-.04-.21-.06-.21-.02 0-.03-.03-.03-.06l-.01-.13a2.4 2.4 0 0 1-.16-.56c.01-.01 0-.03-.02-.05-.02-.01-.04-.06-.04-.1 0-.05 0-.1-.02-.12-.02 0-.03-.05-.04-.08a14.02 14.02 0 0 0-.27-1.01.21.21 0 0 0-.03-.1 1.9 1.9 0 0 1-.17-.58c0-.02 0-.03-.03-.03-.02 0-.03-.03-.03-.07a.71.71 0 0 0-.08-.32 3.23 3.23 0 0 1-.15-.53c-.02-.1-.05-.21-.09-.31a5.9 5.9 0 0 1-.24-.9 75.84 75.84 0 0 0 1.25.11c.24.01.54.05.75.1l.58.06c.53.05 1.06.12 1.59.19l.1.01.64.08.7.08h.01c.07.02.11.02.14.04.07.04.1.13.16.4l.01.04.05.16.02.08c.02.05.03.1.02.12a.06.06 0 0 0 .02.06c.02.01.05.1.08.2l.08.32.17.65.17.56.08.3.1.42c.04.12.09.27.1.34l.02.05.07.28.13.47a15.06 15.06 0 0 1 .25.89c.04.1.14.46.17.62l.1.34c.04.1.08.27.09.36.01.1.04.17.06.16h.02c-.01.05.05.36.08.43.05.09.1.3.14.46 0 .07.02.13.05.19a.8.8 0 0 1 .05.2c.01.07.03.14.06.2l.05.14.02.07.02.1a25.42 25.42 0 0 1 .21.77c.03.06.04.12.05.18.03.16.09.18.12.05.01-.06.04-.1.05-.1.02 0 .09-.1.16-.24l.15-.28.13-.22.2-.35c.1-.16.16-.26.34-.6a.98.98 0 0 1 .15-.24l.1-.16c.03-.1.08-.17.1-.17l.02-.04c0-.03.08-.17.17-.32l.17-.31c0-.02.02-.04.04-.04s.03-.02.03-.04c0-.03.09-.19.19-.36a1.8 1.8 0 0 0 .22-.42 8.73 8.73 0 0 0 .64-1.08l.11-.19a9.07 9.07 0 0 1 .98-1.74c.2-.32.76-1.3.8-1.38l.14-.25c.08-.18.09-.18.21-.16a38.4 38.4 0 0 1 1.74.2l.1.02.65.08a63.86 63.86 0 0 1 2.71.36 4.26 4.26 0 0 0-.2.36c-.05.1-.1.21-.17.32a30.05 30.05 0 0 0-.3.5 15.7 15.7 0 0 1-.87 1.54 5.4 5.4 0 0 1-.33.52c0 .02-.1.22-.24.44a13.12 13.12 0 0 0-.52.92l-.11.2-.1.16-.15.25a13 13 0 0 1-.52.92l-.15.24c-.05.07-.09.13-.12.2-.14.29-.16.32-.19.32a4.41 4.41 0 0 1-.31.58 25.48 25.48 0 0 0-.55.9c-.01 0-.03.04-.03.07-.03.09-.07.17-.13.24-.06.11-.15.26-.18.34a.76.76 0 0 1-.12.18c-.03.02-.06.05-.06.07l-.22.42a2.94 2.94 0 0 0-.25.47.92.92 0 0 0-.16.25 2.2 2.2 0 0 1-.18.3c-.04.07-.09.15-.12.23a.65.65 0 0 1-.11.19c-.02 0-.06.07-.1.16-.04.09-.1.18-.15.26l-.14.24c-.07.14-.14.27-.17.3-.03.02-.19.31-.24.44l-.07.08c-.02 0-.03.02-.03.04s-.08.18-.19.35l-.08.14-.1.2a9 9 0 0 1-.5.82c0 .02-.06.15-.14.27l-.15.27c0 .02-.04.09-.09.15a.86.86 0 0 0-.1.18c-.04.08-.12.09-.5.06ZM20 30.67a49.3 49.3 0 0 0-.17-1.34l-.01-.08-.05-.45v-.03c-.03-.19-.06-.41-.06-.5a3.62 3.62 0 0 0-.1-.7 3.23 3.23 0 0 1-.07-.5 34.17 34.17 0 0 0-.28-2.33 74.52 74.52 0 0 0-.27-2.08c-.01-.2-.12-1.08-.17-1.41a26.4 26.4 0 0 1-.15-1.19 16.18 16.18 0 0 0-.24-1.9l-.07-.62-.13-1.02a21.4 21.4 0 0 0-.2-1.68c-.03-.12-.03-.13.07-.13.13 0 .57-.05.93-.1.15-.03.47-.07.71-.09.25-.02.46-.05.47-.06a.55.55 0 0 1 .19-.03c.1 0 .3-.02.46-.05l.75-.1c.85-.09 1.42-.16 1.65-.2a74.5 74.5 0 0 1 1.66-.2c.67-.08.95-.12 1.03-.14l.64-.06.63-.07 1.01-.14c1.42-.17 1.77-.21 2-.26l.5-.05.36-.03.02.16a45.73 45.73 0 0 1 .25 2.02c.01.03.05.25.07.48a68.32 68.32 0 0 0 .13 1.21c.03.2.03.2-.58.26l-.69.09a62.71 62.71 0 0 1-1.85.22 24.78 24.78 0 0 1-1.24.16 16.43 16.43 0 0 0-1.2.14c-.31.05-1.05.14-1.62.2-.41.04-.45.05-.44.12.03.17.09.55.14 1.02.13 1.09.17 1.36.2 1.5l.01.14.22-.03a36.94 36.94 0 0 1 1.3-.15l.44-.05a73 73 0 0 1 2.41-.3 94.46 94.46 0 0 1 2.3-.29c.03.02.04.1.08.4 0 .1.04.27.05.4l.1.72a213.17 213.17 0 0 0 .31 2.52c-.01.04-.12.05-.78.12a147.48 147.48 0 0 0-2.86.36l-.19.02-.45.05c-.53.08-1.06.14-1.59.2-.2 0-.4.04-.6.07l-.22.05v.17c0 .1.01.18.03.2.02.01.05.24.08.5l.03.3.03.34.02.18.02.22c.01.14.03.28.05.32.02.04.04.16.06.26l.07.7.07.7c.04.34.07.57.1.7l.05.32.02.19-.2.02-.65.06c-.26.03-.48.06-.49.08-.01 0-.22.04-.47.05a2.72 2.72 0 0 0-.73.1l-.7.09-.94.1-.49.07c-.03.02-.16.03-.3.04l-.34.05c-.07.01-.11 0-.13-.03Zm14.35-4 .04 1.8v.55l1.58-.03c.76 0 1.8-.02 2.48-.04h.25l1.16-.03-.02-1.96-.02-1.96 1.6-.02c.87 0 1.72-.03 1.87-.05l.29-.04.33-.04c.18-.02.37-.06.4-.07.05-.02.17-.05.28-.06.1-.01.2-.04.22-.06 0-.02.06-.03.1-.03.05 0 .1-.02.11-.04.02-.01.1-.04.19-.05.15-.03.25-.07.55-.2l.17-.07a5.65 5.65 0 0 0 1.13-.63l.4-.27A6.24 6.24 0 0 0 49 21.36c0-.02.04-.12.1-.22a.7.7 0 0 0 .07-.23c-.01-.01 0-.04.02-.05.02-.01.04-.06.04-.11s.01-.1.04-.1c.02 0 .03 0 .02-.01a1 1 0 0 1 .04-.27l.05-.27.05-.2c.05-.3.05-1.69 0-1.95a8.6 8.6 0 0 1-.09-.4l-.03-.13-.02-.12-.06-.24a.54.54 0 0 0-.08-.2.15.15 0 0 1-.04-.1 6 6 0 0 0-1.32-2.03 6.54 6.54 0 0 0-3.13-1.6 10.68 10.68 0 0 0-1.23-.23c-.28-.02-6.43-.03-8.08 0l-1.1.02.03 6.25c.01 3.44.04 6.82.06 7.5Zm8.31-5.97a5.4 5.4 0 0 1-.97.07l-1.42.03h-.5v-1.58c0-.88 0-1.72-.02-1.88l-.03-.28H41c1.32 0 1.4 0 1.93.17.19.06.23.08.5.33.37.32.53.75.53 1.38 0 .23-.01.45-.03.48a2 2 0 0 0-.1.27c-.03.1-.07.18-.12.26a.22.22 0 0 0-.05.09l-.18.2c-.16.16-.7.48-.75.43 0 0-.04 0-.07.03" clip-rule="evenodd"/><path fill="#966E00" d="m0 33 3-1v4l-1.5-1.5L0 33Z"/><path fill="#000" fill-opacity=".15" d="m3 18 14 2v12L3 34V18Z"/><path fill="#1F8AF9" d="m0 17 16 2v6H0v-8Z"/><path fill="#FFCC43" d="M0 25h16v6L0 33v-8Z"/></svg>