<svg width="83" height="102" fill="none" xmlns="http://www.w3.org/2000/svg"><path d="M81.002 15.666v51.411c0 7.184-3.198 14.005-9.022 18.269-4.555 3.334-10.173 7.187-15.543 10.176-2.685 1.495-5.288 2.763-7.65 3.642-2.377.887-4.433 1.347-6.05 1.304-1.62-.044-3.669-.566-6.027-1.482-2.341-.91-4.921-2.18-7.581-3.659-5.32-2.958-10.894-6.712-15.447-9.973-5.967-4.271-9.268-11.188-9.268-18.488v-51.2c0-3.624 2.073-6.858 5.456-8.053C16.598 5.235 28.39 2 42.708 2c14.319 0 26.11 3.235 32.838 5.613 3.383 1.195 5.456 4.429 5.456 8.053Z" stroke="#fff" stroke-width="3"/><path d="M8.015 67.967c-.079-.134.17-.331.258-.374 3.052-1.435 5.877-4.209 8.728-6.006.798-.476 1.72-.878 2.422-1.482l.144-.13a1.538 1.538 0 0 1-.119-.567c.011-.416-.196-.653-.431-.99-.326-.486-.172-1.253.007-1.76.258-.808.648-1.823 1.283-2.406.238-.223.569-.337.959-.337.207-.008.343-.005.438.185.06.137.078.211.158.723.133.706.327 1.4.425 2.113.046.342.372 1.36-.026 1.593-.018.011-.038.05-.038.078 0 .079.11.042.413-.137 2.66-1.562 5.476-1.081 8.372-.96 2.037.082 2.101.09 2.413.238.338.162.477.088.808-.052.335-.153 1.053-.205 1.304-.454.11-.11.14-.394.206-.54.262-.551.896-.594 1.337-.934 1.069-.819 1.563-2.023 2.678-2.706.398-.244 2.328-2.373 2.352-2.373.077 0 .038-.106-.045-.13-.835-.344-1.75-1.013-2.486-1.537-.156-.114-.35-.19-.493-.319-.076-.067-.14-.089-.28-.089-.226 0-.498.075-.729.097-.289.025-.295.022-.406-.078-.185-.166-.135-.352-.459-.352-.209 0-.224-.007-.35-.149-.13-.16-.153-.46-.364-.519a1.1 1.1 0 0 0-.201-.037c-.125 0-.285-.18-.41-.47a15.93 15.93 0 0 0-.265-.586c-.037-.073-.144-.463-.243-.463-.05 0-.242.094-.573.282-2.566 1.467-5.312 2.373-7.995 3.565-.304.14-1.151.737-1.385.267-.179-.352-.099-.53.387-.89 2.052-1.547 4.241-3.023 6.489-4.28 1.048-.597 2.28-.871 3.457-1.076.306-.051.322-.085.333-.653.008-.373.022-.526.07-.61.144-.263.566-.362.844-.382.263-.022.266-.022.35-.171.497-.826.77-1.79 1.184-2.661.212-.453.49-.656.896-.656.223 0 .254.021.337.259.187.515-.041.94-.144 1.423-.285.921-.778 1.74-1.162 2.617-.026.064-.204.37-.14.435.016.015.383.003.816-.027.858-.055 1.905-.06 5.05-.018 1.008.013 2.782-.127 3.944-.045.208.079-1.24.51-1.397.556-.072.026-.52.07-.835.085-.279.012-.557.028-.835.048-1.19.085-2.382.12-3.575.105a32.65 32.65 0 0 0-1.293-.005c-.008.008.046.137.118.286.072.144.15.327.178.397.026.074.083.195.13.277a.705.705 0 0 1 .018.598 2.18 2.18 0 0 1-.27.355c-.196.212-.205.23-.14.278.037.026.08.043.125.049a.29.29 0 0 1 .14.065c.073.057.118.13.248.386.044.09.041.242-.005.272-.043.025 1.705 1.723 3.048 1.723.265-.018.76-.735.804-.96.026-.197.197-.486.38-.638.166-.14.303-.226.55-.349.924-.43 1.613-1.332 2.402-1.96.224-.178.269-.256.216-.356-.045-.088-.107-.177-.114-.278 0-.862 1.489-.786 1.681-1.334.228-.543-.396-3.66-.501-3.66-.103-.02-.352 0-.459-.136 0-1.016-.596-2.183-.705-3.236-.02-.156-.012-.178.075-.233.576-.384 1.487-.342 2.14-.424.432-.054.505-.01.577.36.167.831.15 1.68.304 2.51.087.456.087.612.01.693a.66.66 0 0 1-.162.122l-.095.048c.063.583.157 3.575.728 3.522.13-.011.141-.022.247-.289 1.085-2.698 1.784-5.603 2.266-8.462.041-.052.068-.845.026-.908-.166-.248-.42-.16-.413-.545 0-.333.179-.984.406-1.253.056-.071.382-.145.63-.145.409 0 .796.127 1.107.39.214.189.284.215.224.648-.079.581-.098 1.157-.748 1.157-.253-.001-.512.385-.542.622-.864 2.675-1.505 5.4-1.977 8.167-.058.307-.12.737.03 1.018.297.561.356 1.272.52 1.887.087.29.08.278.213.234.155-.052.338-.3.338-.46 0-.574 1.11-.882 1.575-.978.455-.093.451-.093.591.043.225.22.326.657.208.876-.03.054-.264.293-.523.526-.542.493-.85.797-1.191 1.183-.205.233-.243.296-.243.414 0 .201.228.249.228.442 0 .4-.572 1.021-.482.99a2.16 2.16 0 0 1 .204-.049c4.032-.54 7.574-2.415 11.43-3.521.01-.004-.436-1.078-.74-1.704-.076-.12-.103-.425-.057-.595.101-.364.436-.635.744-.83l-1.157.011c-3.505.036-6.824 1.627-10.287 1.69-.57.016-.534-.391.018-.481 3.566-.561 7.024-1.682 10.61-2.124.24-.033.558-.074.71-.1l.269-.044a2.63 2.63 0 0 0 .145-.797c.003-.393.04-.523.182-.646.173-.168.719-.392.967-.293.283.133.363.222.523.449.023 0 .153-.137.175-.188.147-.294.664-1.068.964-1.224.384-.2.72-.5 1.1-.716 1.579-.87 3.238-1.565 4.868-2.33.722-.338 1.512-.847 2.315-.894.134-.011.407.066.668.182.266.118.259.11.22.174-.128.208-.323.36-.52.504-1.764 1.36-3.501 2.755-5.278 4.102-.626.654-1.361.859-2.103 1.257-.13.07-.594.245-.66.25-.127 0 .629.232.862.444.376.337.556 1.075.721 1.541.11.316.145.345.39.345.307 0 .652-.08.958-.126.19-.033.346.072.47.316.183.355.121.607-.217.903-.274.243-.555.404-.88.565.025.894.044 1.13-.727 1.722-.355.272-.445.327-.547.327-.087 0-.201-.093-.604-.486l-.493-.49c-.51.056-.788.418-1.234.583-.396.182-.937.072-1.365.141-5.164 1.362-9.99 3.491-14.92 5.486-.156.059-.156.082 0 .145 2.163.838 2.242 3.214 2.272 5.177l.277.546.437-.004c4.383-.031 8.743-.766 13.11-1.108.907-.07 1.385-.123 1.49-.168.184-.077.305-.025.184.075-.257.23-.442.39-.805.57-.843.425-1.947.46-2.88.564-2.811.32-5.641.722-8.475.734-.058 0-.765.057-.765.086 0 .014.034.095.076.185.386.815 1.138 2.064.2 2.802-.101.078-.113.137-.03.137.262 0 .698.805.47 1.027-.03.029-.03.05 0 .062.504.32.34 1.48-.06 1.847-.744.7-2.301.014-3.16.025-.456 0-.6-.048-.68-.233-.045-.104-.148-.556-.307-.522-.115.022-.608-.07-.743-.142a.496.496 0 0 1-.263-.359c-.034-.148-.072-.185-.216-.185-.517 0-.93-.938-.987-1.38.015-.07-.087-.01-.36.205-3.087 2.399-6.836 3.76-9.953 6.068a.548.548 0 0 1-.295.111c-.081 0-.161-.056-.335-.23-.281-.29-.357-.404-.357-.545 0-.855 2.54-2.824 3.187-3.414 1.496-1.368 3.067-3.158 4.892-4.036.144-.075.178-.152.072-.152-.79-.228-1.517-.869-2.193-1.331-.023-.026-.107-.022-.229.01-.796.23-1.345 1.463-1.988 1.985-.189.163-.22.203-.16.243.258.156.287.364.327.65-.273.266-.539.557-.85.778-.594.436-1.198.828-1.912 1.052-.36.116-.479.097-.596-.1-.132-.22-.922.044-1.176.026-.667-.047-.702-.043-.892.09-.224.152-.528.174-.732.048a.84.84 0 0 1-.372-.445c-.224-.703.39-1.425.068-2.157l-.595.026c-.589.026-.596.026-.676-.06-.125-.14-.092-.379-.155-.552-3.176 1.06-6.737 2.899-9.972 3.54-.48.079-1.048.474-1.404.804-.278.249-.49.333-.885.352-.414.018-.698.109-1.006.308-.641.422-.77.468-1.32.493-.476.014-.99.126-1.453.248-.335.095-.645-.004-.96-.051-.118-.026-.27-.219-.27-.349-.008-.256-.24-.364.05-.63.19-.183.45-.367.777-.552.252-.142.293-.227.178-.37-.253-.319-.41-.785-.58-1.162-.148-.33-.163-.593-.045-.707.102-.1.03-.097-.25.014-.93.377-1.748 1.004-2.559 1.584-1.734 1.237-3.588 2.545-5.426 3.61-.736.435-1.422.838-2.208 1.171-.087.044-.322.044-.35 0Zm17.59-6.798c-.054-.052-.054-.182 0-.297.424-.951 1.988-.55 2.716-.997.016-.029-.02-.032-.107-.01-.709.155-3.714-.02-3.714.718 0 .349.275.575.227.975 0 .12 1.045-.227.877-.389Zm25.48-2.914c.221-.12.47-.097.47-.408 0-.532-1.03-4.79-1.294-4.915-.42-.279-2.514 2.718-2.793 3.014-.083.089-.053.144.133.252.384.216 2.832 1.768 3.233 2.058 0 .044.165.024.251 0m-1.788-12.851c-.636.27-1.016.66-1.528 1.124-.358.322-.467.455-.383.455.685-.127 1.974-1.603 1.911-1.579Zm1.362-2.836c-.238-1.065-.364-2.135-.573-3.194-.02-.12-.035-.137-.103-.13-.046.007-.077.037-.068.067.235.895.428 3.183.615 3.399.114.055.163 0 .129-.142ZM19.024 29 17 13.905l12.073-1.251.443 3.302-7.412.768.348 2.595 6.674-.692.443 3.302-6.674.692.79 5.896-4.66.483Zm15.474-1.718-.22-15.198 7.462-.083c1.283-.015 2.409.195 3.377.63.97.434 1.727 1.052 2.273 1.852s.827 1.74.843 2.819c.016 1.088-.246 2.033-.786 2.836-.535.803-1.294 1.425-2.278 1.866-.978.442-2.126.67-3.443.685l-4.457.05-.047-3.206 3.512-.04c.551-.006 1.02-.095 1.406-.268.391-.177.689-.426.893-.744.209-.32.31-.694.304-1.125-.006-.435-.119-.805-.337-1.11a1.958 1.958 0 0 0-.913-.701c-.391-.164-.862-.243-1.414-.237l-1.654.019.172 11.903-4.693.052ZM57.54 12.623l2.254 10.984.135.012 4.798-10.332 5.273.486-7.48 14.593-6.382-.59-3.87-15.64 5.273.487ZM19.576 70l2.815.411 1.914 7.687.126.018 4.032-6.818 2.814.41-1.576 10.795-2.213-.323 1.025-7.026-.09-.013-3.811 6.565-1.507-.22-1.772-7.407-.09-.013-1.03 7.052L18 80.795 19.576 70Zm14.268 13.304-2.468-.136 4.36-10.685 2.968.163 3.156 11.1-2.468-.136-2.266-8.554-.085-.005-3.197 8.253Zm.082-4.29 5.83.321-.1 1.798-5.83-.321.1-1.798Zm10.135 4.799-.245-10.907 7.221-.162.043 1.9-4.916.111.059 2.6 4.436-.1.043 1.9-4.436.1.101 4.506-2.306.052Zm11.472-11.648.899 10.872-2.299.19-.899-10.872 2.299-.19Zm5.51 9.828-2.444.37 2.093-11.35 2.94-.444 5.348 10.225-2.444.369-3.96-7.913-.084.012-1.45 8.731Zm-.794-4.217 5.773-.872.269 1.78-5.773.873-.269-1.78Z" fill="#fff"/><path d="m0 49.999 3-1v4l-1.5-1.5L0 50Z" fill="#966E00"/><path d="m2.998 35 22.706-.916a2 2 0 0 1 2.08 1.998v10.931A2 2 0 0 1 26.024 49L2.998 51.786V35Z" fill="#000" fill-opacity=".15"/><path d="m0 34 23.771-2.743a2 2 0 0 1 2.23 1.987V40L0 42v-8Z" fill="#1F8AF9"/><path d="m0 42 26-3v6.218a2 2 0 0 1-1.77 1.986L0 50v-8Z" fill="#FFCC43"/></svg>